<svg id="Draft" height="512" viewBox="0 0 500 500" width="512" xmlns="http://www.w3.org/2000/svg"><path d="m425.06 311.87c-1.44-9.04-5.17-17.5-11.36-24.51-3.38-3.82-7.25-6.99-11.49-9.48l-.26-.15c-4.75 8.44-11.62 15.5-19.89 20.51-1.34.8-2.69 1.55-4.1 2.25-7.51 3.7-15.94 5.79-24.87 5.79-10 0-19.39-2.63-27.52-7.21-10.71 8.57-24.28 13.71-39.07 13.71-6.5 0-12.76-1-18.65-2.84.15.05 1.32 23.27 9.63 41.94l-.9.41c-10.87 1.06-22.69.83-34.94-.9l-.03.25c4.75 9.79 12.97 20.74 30.5 30.78 31.29 17.87 49.16 18.77 68.51 49.14 19.37 30.39 34.26 22.34 41.71 20.86 7.44-1.49 20.84-7.44 0-28.3-9.3-9.3-12.39-21.85-12.94-32.92l-.46-1.8c11.11-2.71 22.15-8.31 31.78-16.79 19.01-16.73 27.63-40.25 24.35-60.74z" fill="#f9cc9b"/><path d="m277.48 351.89-.9.41c-10.87 1.06-22.69.83-34.94-.9-2.91-.39-5.84-.9-8.8-1.47-40.25-7.9-71.47-29.43-79.33-52.29v-.2c16.04-.7 30.5-7.46 41.18-18.02 8.85 8.88 21.07 14.36 34.58 14.36 3.84 0 7.56-.46 11.13-1.29 7.36 8.03 16.79 14.13 27.45 17.45.15.05 1.32 23.27 9.63 41.94z" fill="#e24374"/><path d="m407.35 125.99c1.09-3.69 1.68-7.57 1.68-11.6 0-22.52-18.26-40.78-40.78-40.78-4.19 0-8.23.64-12.03 1.8-7.1-17.51-24.27-29.88-44.33-29.88-13.76 0-26.14 5.81-34.86 15.11-12.19-7.95-26.73-12.58-42.37-12.58-24.53 0-46.37 11.38-60.6 29.12-10.22-5.73-22-9.01-34.55-9.01-39.07 0-70.75 31.68-70.75 70.75 0 5.11.55 10.1 1.58 14.92-20.37 10.31-34.35 31.43-34.35 55.83 0 31.01 22.55 56.75 52.14 61.69 3.39.57 6.87.87 10.41.87.62 0 1.22-.03 1.84-.05 11.39 15.39 29.67 25.36 50.3 25.36.95 0 1.88-.02 2.81-.07 16.04-.7 30.5-7.46 41.18-18.02 8.85 8.88 21.07 14.36 34.58 14.36 3.84 0 7.56-.46 11.13-1.29 7.36 8.03 16.79 14.13 27.45 17.45 5.89 1.84 12.16 2.84 18.65 2.84 14.79 0 28.36-5.14 39.07-13.71 8.13 4.59 17.51 7.21 27.52 7.21 8.93 0 17.36-2.09 24.87-5.79 1.4-.7 2.76-1.45 4.1-2.25 8.27-5.01 15.15-12.08 19.89-20.51.69-1.19 1.31-2.43 1.89-3.69 0 0 1.81.07 2.22 0 10.76-2.07 20.66-8.27 27.22-17.02 6.56-8.76 9.73-20.01 8.68-30.91.02-.74.65-1.11.65-1.11l.42-.44c7.05-7.16 12.24-16.14 14.82-26.16v-.02c1.21-4.65 1.84-9.51 1.84-14.54 0-30.16-22.96-54.95-52.36-57.86z" fill="#ff7f9f"/><path d="m377.95 300.5c-7.51 3.7-15.94 5.79-24.87 5.79-10 0-19.39-2.63-27.52-7.21-10.71 8.57-24.28 13.71-39.07 13.71-6.5 0-12.76-1-18.65-2.84-10.66-3.31-20.09-9.42-27.45-17.45-3.57.83-7.3 1.29-11.13 1.29-13.51 0-25.74-5.48-34.58-14.36-10.67 10.56-25.13 17.32-41.18 18.02-.93.05-1.86.07-2.81.07-20.63 0-38.91-9.97-50.3-25.36l1.4-.82c7.74 8.65 20.11 12.58 31.84 12.39 12.93-.21 25.36-4.68 37.42-9.38 10.98-4.29 22.41-9.17 29.67-18.47 9.42 13.64 27.84 20.35 43.82 15.96 1.57-.44 3.26-.95 4.77-.33 1.24.52 2.04 1.71 2.86 2.79 7.39 9.94 20.53 14.69 32.85 13.56 12.34-1.14 23.78-7.57 32.61-16.24 6.66 5.39 15.55 7.41 24.11 7.08 22.34-.82 35.84-7.38 50.87-20.04 7.13-6.01 12.81-14.15 14.53-23.29 1.31 4.73 2.01 9.73 2.01 14.87 0 8.52-1.89 16.6-5.3 23.81-.59 1.26-1.21 2.5-1.89 3.69-4.75 8.44-11.62 15.5-19.89 20.51-1.34.8-2.69 1.55-4.1 2.25z" fill="#fc648d"/><path d="m405.97 274.04c10.76-2.07 20.66-8.27 27.22-17.02 6.56-8.76 9.73-20.01 8.68-30.91-.07-.75.8-1.26.65-1.11 12.94 8.55 21.48 23.22 21.48 39.9 0 23.26-16.61 42.64-38.65 46.92l-.39.05c-1.44-9.04-5.17-17.5-11.36-24.51-3.38-3.82-7.25-6.99-11.49-9.48l-.26-.15c.69-1.19 1.31-2.43 1.89-3.69 0 0 1.81.07 2.22 0z" fill="#fc648d"/><path d="m425.06 311.87c-1.44-9.04-5.17-17.5-11.36-24.51-3.38-3.82-7.25-6.99-11.49-9.48l-.26-.15c-4.75 8.44-11.62 15.5-19.89 20.51-1.34.8-2.69 1.55-4.1 2.25 6.92-1.58 13.66 4 16.76 10.4 4.8 9.92 3.66 22.15-1.76 31.71-5.43 9.58-14.77 16.6-25.05 20.51-10.3 3.92-21.51 4.93-32.51 4.36-5.71-.29-11.49-1.01-16.71-3.33-7.08-3.13-12.81-9.24-15.52-16.5l-.38.03c1.11 9.96 4.96 19.31 11.7 26.98.78.88 1.58 1.73 2.42 2.55l-.02.02c-5.34-1.29-10.98-.69-16.3-1.99-3.51-.85-6.81-2.53-9.55-4.88l.1-.13c-5.94-4.23-10.36-10.92-13.66-18.33l-.9.41c-10.87 1.06-22.69.83-34.94-.9l-.03.25c4.75 9.79 12.97 20.74 30.5 30.78 31.29 17.87 49.16 18.77 68.51 49.14 19.37 30.39 34.26 22.34 41.71 20.86 7.44-1.49 20.84-7.44 0-28.3-9.3-9.3-12.39-21.85-12.94-32.92l-.46-1.8c11.11-2.71 22.15-8.31 31.78-16.79 19.01-16.73 27.63-40.25 24.35-60.74z" fill="#d8a36f"/><g fill="#93653b"><path d="m334.79 329.29c-7.97 0-13.16-.73-13.34-.75-.89-.13-1.51-.96-1.37-1.85.13-.89.97-1.49 1.85-1.38.55.08 55.58 7.76 83.25-28.61.55-.72 1.57-.86 2.29-.31s.86 1.57.31 2.29c-20.24 26.6-54.27 30.62-73 30.62z"/><path d="m337.83 350.69c-8.09 0-13.38-.77-13.71-.81-.89-.13-1.51-.96-1.37-1.85.13-.89.96-1.5 1.85-1.38.12.02 12.33 1.78 27.96-.09.89-.12 1.71.53 1.81 1.43.11.89-.53 1.71-1.43 1.81-5.62.67-10.77.89-15.11.89z"/><path d="m377.58 343.79c-.65 0-1.27-.4-1.52-1.04-.33-.84.09-1.79.93-2.11 12.85-4.98 23.23-12.58 30.86-22.61.55-.72 1.57-.86 2.29-.31s.86 1.57.31 2.29c-8 10.51-18.86 18.48-32.27 23.68-.19.07-.39.11-.59.11z"/><path d="m338.86 370.76c-1.41 0-2.75-.02-4-.06-.9-.03-1.61-.78-1.58-1.68s.78-1.61 1.68-1.58c15.59.49 44.93-1.55 65.86-20.63.67-.61 1.7-.56 2.31.11s.56 1.7-.11 2.31c-20.09 18.31-47.4 21.54-64.16 21.54z"/></g><path d="m261.48 338.42c-66.09 0-91.84-37.99-94.63-42.46-.16-.23-.26-.5-.29-.79-.08-.9.59-1.69 1.49-1.76.62-.05 1.24.31 1.56.83 2.78 4.45 29.18 43.4 98.37 40.8.9-.07 1.66.67 1.69 1.57s-.67 1.66-1.57 1.69c-2.25.08-4.46.13-6.62.13z" fill="#913c57"/><path d="m254.68 321.45s-.06 0-.09 0c-51.04-2.64-71.25-31.31-72.09-32.53-.51-.74-.32-1.76.42-2.27s1.76-.32 2.27.42c.2.29 20.23 28.56 69.57 31.12.9.05 1.59.81 1.55 1.71-.05.87-.77 1.55-1.63 1.55z" fill="#913c57"/><path d="m265.39 310.76c-.18 0-.37-.03-.55-.1-9.44-3.39-18.07-9.04-25-16.37-3.49.75-7.05 1.13-10.58 1.13-12.97 0-25.19-4.86-34.58-13.73-10.81 10.18-24.82 16.31-39.61 17.31-.89.06-1.68-.62-1.74-1.52s.62-1.68 1.52-1.74c14.55-.98 28.29-7.19 38.69-17.48.64-.63 1.67-.63 2.31 0 8.91 8.96 20.78 13.89 33.42 13.89 3.6 0 7.22-.42 10.77-1.25.58-.13 1.17.05 1.57.49 6.68 7.28 15.1 12.88 24.34 16.19.85.3 1.29 1.24.98 2.09-.24.67-.87 1.08-1.54 1.08z" fill="#913c57"/><path d="m297.2 220.77.31.34c-4.96 4.46-8.5 9.97-9.79 15.29l-.64.86c-12.34-8.96-29.33-10.2-43.18-1.81-.28.16-.55.34-.83.52l-.05-.07c-.93-3.12-2.27-6.17-4.03-9.07-.69-1.14-1.42-2.22-2.2-3.26l1.09-.72c2.94-3.8 7.59-5.84 12.19-7.21 9.42-2.81 19.49-3.44 29.18-1.83 6.4 1.06 12.73 3.13 17.95 6.95z" fill="#fc648d"/><path d="m230.4 171.58-.44-.75c.44-2.81.67-5.7.67-8.62 0-8.27-1.83-16.11-5.11-23.14 11.16-18.82 40.92-20.69 40.92-20.69-16.24-3.38-32.59 1.47-45.76 11.13-.2.15-.36.31-.51.47-.32.39-.48.82-.51 1.28.03-.46.19-.89.51-1.28-9.97-13.73-26.14-22.65-44.41-22.65-16.04 0-30.47 6.89-40.51 17.85 0 0 30.73-19.05 60.84-1.81 30.11 17.23 26.47 54.02 26.47 54.02-.78.7-1.55 1.42-2.28 2.15-7.13 7.1-12 15.86-14.39 25.23l-.05 3.25c3.2.02 6.4.44 9.48 1.24l3.93-1.24s8.49-20.91 29.36-29.36c20.5-8.29 45.37-2.04 46.32-1.81-17.69-15.32-43.82-17.97-64.53-5.27z" fill="#ffb8d1"/><path d="m219.43 178.73.85.82c-7.13 7.1-12 15.86-14.39 25.23l-.05 3.25c-6.99-.05-14.05 1.76-20.47 5.65-8.72 5.29-14.64 13.45-17.27 22.54l-.16-.02c.18-1.49.28-3 .28-4.52 0-21.56-17.48-39.04-39.04-39.04-12.06 0-22.85 5.47-30 14.07l-.9-.78c6.51-10.18 16.09-18.38 27.17-23.22 3.12-1.37 6.35-2.48 9.65-3.3 16.21-4 34.11-.49 47.62 9.32.9.65 1.88 1.35 3 1.31 1.04-.07 1.91-.78 2.73-1.45 8.58-7.03 19.91-10.64 30.98-9.84z" fill="#fc648d"/><path d="m407.35 125.98c1.09-3.69 1.68-7.57 1.68-11.6 0-22.52-18.26-40.78-40.78-40.78-4.19 0-8.23.64-12.03 1.8-7.1-17.51-24.27-29.88-44.33-29.88-13.76 0-26.14 5.81-34.86 15.11-12.19-7.95-26.73-12.58-42.37-12.58-24.53 0-46.37 11.38-60.6 29.12-10.22-5.73-22-9.01-34.55-9.01-39.07 0-70.75 31.68-70.75 70.75 0 5.11.55 10.1 1.58 14.92-20.37 10.31-34.35 31.43-34.35 55.83 0 31.01 22.55 56.75 52.14 61.69v-.02c-27.34-15.34-38.71-39.36-35.38-71.06 3.33-31.69 39.32-43.87 39.32-43.87 1.21-68.95 77.46-72.22 77.46-72.22.45-.8-2.99 5.84-4.52 10.46 1.04-.96 38.47-35.07 76.59-26.85 38.66 8.32 61.56 29.28 70.96 61.72l-2.91-20.22c8.95 1.51 72.81 14.84 60.91 87.29l-.26 1.24c5.04 1.06 8.21 2.43 8.21 2.43 3.61-8.49 5.61-17.84 5.61-27.66 0 0 24.24-5.73 36.44 21.4 1.96-11.44-1.99-23.6-11.46-31.69-7.57-6.48-17.15-9.06-26.32-7.93l-.96.26c-7.96-30.37-35.59-52.78-68.45-52.78-1.6 0-3.18.07-4.77.18-3.48-10.87-9.29-20.69-16.84-28.9 0 0 36-18.28 54.35 21.53 0 0 47.25-8.75 47.36 44.44 0 0 55.93 0 64.38 59.29 1.21-4.65 1.84-9.51 1.84-14.54 0-30.16-22.96-54.95-52.36-57.86z" fill="#ffb8d1"/><path d="m287.71 238.03c-.13 0-.26-.02-.39-.05-.87-.21-1.41-1.1-1.2-1.97 2.18-8.92 9.93-17.76 19.75-22.52.81-.39 1.79-.05 2.18.76s.06 1.79-.76 2.18c-8.85 4.29-16.08 12.47-18.01 20.35-.18.75-.85 1.25-1.58 1.25z" fill="#bc5972"/><path d="m340.25 201.89c-.63 0-1.23-.37-1.5-.98-.36-.83.02-1.79.85-2.15 19.5-8.46 38.74-.35 39.55 0 .83.36 1.21 1.32.85 2.14-.36.83-1.31 1.21-2.14.85-.18-.08-18.78-7.89-36.96 0-.21.09-.43.14-.65.14z" fill="#bc5972"/><path d="m168.11 237.84c-.15 0-.3-.02-.45-.07-.87-.25-1.37-1.16-1.11-2.02 2.84-9.83 9.23-18.17 17.99-23.47 19.18-11.61 44.23-5.46 55.85 13.72 1.8 2.97 3.21 6.15 4.2 9.45.26.86-.23 1.77-1.1 2.03-.86.26-1.77-.23-2.03-1.1-.91-3.03-2.2-5.96-3.86-8.69-10.68-17.64-33.73-23.3-51.37-12.62-8.06 4.88-13.93 12.55-16.55 21.59-.21.71-.86 1.18-1.57 1.18z" fill="#bc5972"/><path d="m291.76 372.31c-.31 0-.63-.09-.91-.28-17.62-11.85-22.93-43.27-24.53-60.94-.04-.38-.06-.66-.07-.8-.07-.29-.05-.61.06-.91.31-.85 1.25-1.28 2.09-.97.99.36 1.05 1.08 1.17 2.39 1.25 13.76 5.99 47.02 23.1 58.53.75.5.95 1.52.44 2.27-.32.47-.83.72-1.36.72z" fill="#93653b"/></svg>